<?xml version="1.0" encoding="iso-8859-1"?>
<!-- Generator: Adobe Illustrator 18.0.0, SVG Export Plug-In . SVG Version: 6.00 Build 0)  -->
<!DOCTYPE svg PUBLIC "-//W3C//DTD SVG 1.1//EN" "http://www.w3.org/Graphics/SVG/1.1/DTD/svg11.dtd">
<svg version="1.1" id="Capa_1" xmlns="http://www.w3.org/2000/svg" xmlns:xlink="http://www.w3.org/1999/xlink" x="0px" y="0px"
	 viewBox="0 0 393.713 393.713" style="enable-background:new 0 0 393.713 393.713;" xml:space="preserve">
<g>
	<g>
		<g>
			<path style="fill:#FFB37F;" d="M183.705,159.414c-2.927-4.684-9.098-6.105-13.78-3.18c-0.601,0.375-14.87,9.398-28.293,26.873
				c-12.032,15.664-20.413,34.963-23.423,54.5c-2.032,13.189-5.65,44.045,8.683,52.643c14.666,8.797,15.817-9.242,13.582-18.631
				c9.128,8.115,12.125,2.295,7.751-6.23c-6.346-12.369-11.754-16.338-8.799-31.258c2.755-13.912,9.095-26.998,17.632-38.27
				c11.185-14.768,23.269-22.541,23.489-22.682C185.213,170.248,186.627,164.09,183.705,159.414z"/>
			<path style="fill:#FFC695;" d="M277.323,261.418c-0.321-6.156-1.142-12.035-1.626-16.475
				c-2.467-22.602-10.226-44.051-24.129-62.15c-13.424-17.477-27.693-26.498-28.293-26.875c-4.683-2.926-10.853-1.504-13.78,3.182
				c-2.922,4.676-1.508,10.832,3.158,13.766c0.22,0.139,12.304,7.912,23.489,22.68c8.155,10.768,14.093,22.986,17.091,36.168
				c2.643,11.625,1.104,20.162-4.422,30.547c-3.65,6.859-7.357,22.039,5.01,11.043c-2.234,9.389-1.084,27.426,13.582,18.631
				C276.682,286.367,277.945,273.369,277.323,261.418z"/>
		</g>
		<path style="fill:#F29555;" d="M227.431,160.016c-4.938-5.387-21.75-13.518-30.574-11.148
			c-8.824-2.369-25.636,5.762-30.574,11.148c-7.29,7.953-16.305,21.699-14.25,86.697h44.702h0.242h44.702
			C243.736,181.715,234.721,167.969,227.431,160.016z"/>
		<g>
			<path style="fill:#3A2C24;" d="M176.795,172.609c-0.106-0.209-0.212-0.418-0.317-0.627c-0.397-0.708-0.796-1.415-1.191-2.124
				c-2.778-3.885-5.296-7.932-7.61-12.106c-4.624,3.264-15.589,11.745-26.044,25.355c-12.032,15.664-20.413,34.963-23.423,54.5
				c-0.251,1.627-0.525,3.524-0.788,5.613c7.069-0.21,14.151,0.105,21.234,0.208c-0.173-2.63,0.045-5.633,0.771-9.298
				c2.755-13.912,9.095-26.998,17.632-38.27c8.067-10.65,16.6-17.662,20.814-20.797
				C177.512,174.247,177.157,173.426,176.795,172.609z"/>
			<path style="fill:#3A2C24;" d="M251.568,182.793c-8.082-10.521-16.466-17.974-21.993-22.325
				c-3.083,6.175-5.948,12.445-8.69,18.771c4.363,3.793,9.911,9.248,15.256,16.306c8.155,10.768,14.093,22.986,17.091,36.168
				c0.793,3.484,1.201,6.688,1.247,9.75c6.985,0.219,13.975,0.738,20.962,1.417C272.735,221.039,265.048,200.34,251.568,182.793z"/>
		</g>
		<path style="fill:#E1F7F9;" d="M227.431,159.016c-0.571-0.623-0.307-0.283-1.164-0.959c-17.425,12.53-41.695,13.868-59.283-0.738
			c-0.251,0.235-0.49,0.468-0.7,0.697c-7.29,7.953-16.305,23.699-14.25,88.697h89.646
			C243.736,181.715,234.721,166.969,227.431,159.016z"/>
		<path style="fill:#3A2C24;" d="M165.36,159.049c-7.102,8.16-17.78,23.628-13.327,87.664h21.616
			C169.944,218.248,166.975,187.692,165.36,159.049z"/>
		<polygon style="fill:#4C3F38;" points="177.581,149.344 152.248,155.344 169.248,245.344 178.914,245.344 		"/>
		<path style="fill:#3A2C24;" d="M228.431,160.016c-0.569-0.621-2.302-1.279-3.156-1.952c-0.817,29.613-3.311,59.12-5.513,88.649
			h21.918C245.58,180.011,235.721,167.969,228.431,160.016z"/>
		<polygon style="fill:#4C3F38;" points="215.582,149.345 240.914,155.345 223.915,245.345 214.248,245.345 		"/>
		<g>
			<g>
				
					<ellipse transform="matrix(0.9926 -0.1218 0.1218 0.9926 -9.802 31.7811)" style="fill:#FFB37F;" cx="254.995" cy="96.048" rx="13.667" ry="17"/>
				
					<ellipse transform="matrix(0.9998 -0.0177 0.0177 0.9998 -1.678 2.4319)" style="fill:#F29555;" cx="136.662" cy="96.09" rx="13.667" ry="17"/>
			</g>
			<g>
				<path style="fill:#FFC695;" d="M197.865,33.178c-15.093,0.7-30.754,4.86-42,12.536c-16.568,11.31-21.096,34.79-20.242,52.997
					c2.625,56.002,47.926,57.709,62.242,58.861V33.178z"/>
				<path style="fill:#FFC695;" d="M196.849,33.178c15.093,0.7,29.754,4.86,41,12.536c16.568,11.31,19.357,34.805,18.242,52.997
					c-1.512,24.633-11.844,59.3-59.243,58.861V33.178z"/>
			</g>
			<g>
				<path style="fill:#FFB37F;" d="M152.153,245.713c1.124,11.6,7.469,74.742,22.757,126h16l-3-88h18.045l-2.99,87h16
					c14.888-49.918,21.296-111.268,22.66-125H152.153z"/>
				<path style="fill:#17242B;" d="M190.91,371.713h-16c0,0-27,14-25,22h42L190.91,371.713z"/>
				<path style="fill:#17242B;" d="M202.804,370.713h16c0,0,27,14,25,22h-42L202.804,370.713z"/>
			</g>
			<path style="opacity:0.5;fill:#4198C4;" d="M179.132,392.713h12.778l-0.811-17.838
				C185.248,379.096,181.512,385.77,179.132,392.713z"/>
			<path style="opacity:0.5;fill:#4198C4;" d="M214.577,392.713h-12.778l0.811-17.838
				C208.46,379.096,212.196,385.77,214.577,392.713z"/>
		</g>
		<g>
			<path style="fill:#4198C4;" d="M152.153,245.713c1.124,11.6,7.469,74.742,22.757,126h16l-3-88h18.045l-2.99,87h16
				c14.888-49.918,21.296-111.268,22.66-125H152.153z"/>
		</g>
		<g>
			<circle style="fill:#333331;" cx="166.732" cy="99.867" r="6.487"/>
			<circle style="fill:#333331;" cx="226.981" cy="99.867" r="6.487"/>
		</g>
		<path style="fill:#F29555;" d="M206.189,114.047c0,3.498-2.335,6.333-5.215,6.333h-8.235c-2.881,0-5.216-2.835-5.216-6.333l0,0
			c0-3.498,2.335-6.333,5.216-6.333h8.235C203.854,107.714,206.189,110.549,206.189,114.047L206.189,114.047z"/>
		<path style="fill:#F29555;" d="M210.395,126.736c-1.639-0.203-3.127,0.949-3.345,2.578c-0.116,0.779-1.332,6.977-10.193,7.398
			c-8.861-0.422-10.077-6.619-10.193-7.398c-0.218-1.629-1.706-2.781-3.345-2.578c-1.644,0.205-2.81,1.705-2.605,3.35
			c0.542,4.338,4.626,12.107,15.976,12.602v0.023c0.058-0.002,0.109-0.01,0.167-0.012c0.058,0.002,0.109,0.01,0.167,0.012v-0.023
			c11.35-0.494,15.434-8.264,15.976-12.602C213.205,128.442,212.039,126.942,210.395,126.736z"/>
		<path style="fill:#706966;" d="M152.261,387.713c-1.804,2.15-2.795,4.223-2.351,6h42l-0.273-6H152.261z"/>
		<path style="fill:#706966;" d="M202.032,388.713l-0.228,5h42c0.375-1.5-0.269-3.211-1.564-5H202.032z"/>
		<rect x="170.291" y="364.379" style="fill:#4198C4;" width="22.667" height="8.668"/>
		<rect x="200.958" y="364.713" style="fill:#4198C4;" width="22.667" height="8.666"/>
	</g>
	<path style="fill:#3A2C24;" d="M258.038,65.03c-0.185-4.944-1.048-10.62-2.647-15.334c-4.194-12.35-13.378-21.728-26.039-25.814
		c-10.169-3.282-54.916-2.969-65.085,0.313c-12.661,4.086-21.844,13.464-26.038,25.814c-1.601,4.714-2.463,10.39-2.648,15.334
		c-0.195,5.236,2.667,16.666,2.667,16.666c3.333-19.333,12.568-23.922,26.651-22.666c11.848,1.056,20.005,7.203,32.581,6.565
		c0.005-0.094,0.01-0.193,0.014-0.288c11.813,0.149,19.785-5.973,31.226-6.591c18.86-1.021,27.985,22,27.985,22
		C258.046,75.841,258.233,70.267,258.038,65.03z"/>
	<path style="fill:#3A2C24;" d="M138.248,48.677c14.831-30.076,42.717-33.229,70.664-45.481c7.072-3.101,7.891-5.4,14.521,0.278
		c15.454,13.236,27.045,30.981,32.815,50.536"/>
	<rect x="151.914" y="244.011" style="fill:#3A2C24;" width="91.334" height="13.333"/>
</g>
<g>
</g>
<g>
</g>
<g>
</g>
<g>
</g>
<g>
</g>
<g>
</g>
<g>
</g>
<g>
</g>
<g>
</g>
<g>
</g>
<g>
</g>
<g>
</g>
<g>
</g>
<g>
</g>
<g>
</g>
</svg>
