<?xml version="1.0" encoding="iso-8859-1"?>
<!-- Generator: Adobe Illustrator 18.0.0, SVG Export Plug-In . SVG Version: 6.00 Build 0)  -->
<!DOCTYPE svg PUBLIC "-//W3C//DTD SVG 1.1//EN" "http://www.w3.org/Graphics/SVG/1.1/DTD/svg11.dtd">
<svg version="1.1" id="Capa_1" xmlns="http://www.w3.org/2000/svg" xmlns:xlink="http://www.w3.org/1999/xlink" x="0px" y="0px"
	 viewBox="0 0 387.369 387.369" style="enable-background:new 0 0 387.369 387.369;" xml:space="preserve">
<g>
	<path style="fill:#562307;" d="M130.046,186.332l130-1.332c0,0,55.001-185-68.999-185C70.043,0,130.046,186.332,130.046,186.332z"
		/>
	<g>
		<g>
			<path style="fill:#FFB37F;" d="M178.159,154.15c-2.552-4.082-7.928-5.32-12.007-2.771c-0.523,0.326-12.956,8.189-24.653,23.416
				c-10.483,13.648-17.786,30.463-20.408,47.486c-1.771,11.492-4.924,38.377,7.566,45.869c12.779,7.666,13.781-8.053,11.835-16.234
				c7.952,7.072,10.564,2,6.754-5.428c-5.529-10.777-10.242-14.236-7.667-27.236c2.4-12.121,7.925-23.523,15.363-33.344
				c9.746-12.869,20.275-19.641,20.467-19.764C179.473,163.59,180.705,158.225,178.159,154.15z"/>
			<path style="fill:#FFC695;" d="M271.73,243.305c-0.279-5.365-0.994-10.488-1.416-14.355c-2.15-19.693-8.91-38.383-21.025-54.154
				c-11.696-15.227-24.13-23.088-24.652-23.416c-4.081-2.549-9.457-1.311-12.008,2.771c-2.546,4.074-1.315,9.439,2.752,11.996
				c0.192,0.119,10.721,6.893,20.467,19.76c7.105,9.383,12.279,20.029,14.892,31.516c2.303,10.129,0.961,17.566-3.854,26.615
				c-3.181,5.977-6.41,19.203,4.365,9.623c-1.946,8.18-0.944,23.897,11.835,16.233C271.172,265.043,272.272,253.717,271.73,243.305z
				"/>
		</g>
		<path style="fill:#F29555;" d="M225.563,153.672c-4.938-5.387-21.75-13.518-30.573-11.148
			c-8.824-2.369-25.637,5.762-30.574,11.148c-7.289,7.953-12.305,21.699-10.25,86.697h40.703h0.242h44.701
			C241.869,175.371,232.853,161.625,225.563,153.672z"/>
		<path style="fill:#FF0000;" d="M155.022,181.668c-1.322,12.602-1.732,30.992-0.857,58.701h84.646
			c0.877-27.709,0.74-46.1-1.416-58.701c0,0-6.685-8.004-42.684-7.336C163.717,174.908,155.022,181.668,155.022,181.668z"/>
		<g>
			<path style="fill:#3281A0;" d="M131.713,186.666l16,12.334l6.228-9.76L150.047,223l21.333,1.332V149
				C171.38,149,148.047,154.332,131.713,186.666z"/>
			
				<rect x="124.714" y="188.333" transform="matrix(0.8094 0.5873 -0.5873 0.8094 139.9894 -43.9606)" style="fill:#4198C4;" width="26" height="10.666"/>
			<polygon style="fill:#4198C4;" points="176.096,224.332 167.329,224.332 167.329,147.666 176.096,144.666 			"/>
		</g>
		<g>
			<path style="fill:#3281A0;" d="M260.44,186.666l-16,12.334l-6.228-9.76l3.894,33.76l-21.333,1.332V149
				C220.773,149,244.106,154.332,260.44,186.666z"/>
			
				<rect x="241.439" y="188.333" transform="matrix(-0.8094 0.5873 -0.5873 -0.8094 574.1145 200.986)" style="fill:#4198C4;" width="26" height="10.666"/>
			<polygon style="fill:#4198C4;" points="216.057,224.332 224.824,224.332 224.824,147.666 216.057,144.666 			"/>
		</g>
		<g>
			<g>
				<path style="fill:#FFC695;" d="M195.998,26.834c-15.094,0.7-30.754,4.86-42,12.536c-16.568,11.309-22.661,34.931-20.242,52.997
					c6.365,47.543,51.946,58.033,62.242,58.861V26.834z"/>
				<path style="fill:#FFC695;" d="M194.982,26.834c15.092,0.7,29.754,4.86,41,12.536c16.568,11.309,19.357,34.804,18.242,52.997
					c-1.512,24.633-28.179,57.965-59.242,58.861V26.834z"/>
			</g>
			<g>
				<path style="fill:#FFB37F;" d="M154.285,239.369c1.124,11.6,4.47,74.742,19.758,126h12v-88h18.045l3.01,87h11
					c11.889-49.918,20.297-111.268,21.66-125H154.285z"/>
				<path style="fill:#FF0000;" d="M186.043,365.369h-12c0,0-15.996,5.631-29,22h42L186.043,365.369z"/>
				<path style="fill:#FF0000;" d="M206.937,364.369h13c0,0,18.775,9.297,25,22h-38V364.369z"/>
			</g>
		</g>
		<path style="fill:#280E0E;" d="M235.62,285c3.553-22.631,4.192-46.631,4.192-46.631h-85.646
			c-0.786,15.297,1.43,32.307,3.497,46.631H235.62z"/>
		<g>
			<circle style="fill:#333331;" cx="164.864" cy="93.524" r="6.487"/>
			<circle style="fill:#333331;" cx="225.114" cy="93.524" r="6.487"/>
		</g>
		<path style="fill:#F29555;" d="M204.322,109.036c0,2.762-2.335,5.001-5.215,5.001h-8.236c-2.881,0-5.215-2.239-5.215-5.001l0,0
			c0-2.761,2.334-5,5.215-5h8.236C201.987,104.036,204.322,106.275,204.322,109.036L204.322,109.036z"/>
		<path style="fill:#FF0000;" d="M208.527,120.393c-1.639-0.203-3.127,0.949-3.346,2.578c-0.115,0.779-1.331,6.977-10.192,7.398
			c-8.861-0.422-10.077-6.619-10.192-7.398c-0.219-1.629-1.707-2.781-3.346-2.578c-1.645,0.205-2.811,1.705-2.605,3.35
			c0.543,4.338,4.627,12.107,15.977,12.602v0.023c0.059-0.002,0.109-0.01,0.167-0.012c0.058,0.002,0.108,0.01,0.167,0.012v-0.023
			c11.35-0.494,15.434-8.264,15.977-12.602C211.338,122.098,210.172,120.598,208.527,120.393z"/>
	</g>
	<path style="fill:#74320A;" d="M165.047,54c0,0,40,37,91,30c0,0,5-68-63-68s-58.552,56.749-58.552,56.749S147.047,70,165.047,54z"
		/>
	<polygon style="fill:#FF0000;" points="166.798,47.409 154.438,19.431 141.725,37.141 141.34,36.554 119.433,34.644 
		132.606,62.248 145.212,44.24 	"/>
	<circle style="fill:#280E0E;" cx="196.491" cy="186" r="5.667"/>
	<circle style="fill:#280E0E;" cx="196.491" cy="199.666" r="5.667"/>
	<circle style="fill:#280E0E;" cx="196.491" cy="215" r="5.667"/>
</g>
<g>
</g>
<g>
</g>
<g>
</g>
<g>
</g>
<g>
</g>
<g>
</g>
<g>
</g>
<g>
</g>
<g>
</g>
<g>
</g>
<g>
</g>
<g>
</g>
<g>
</g>
<g>
</g>
<g>
</g>
</svg>
